<svg width="83" height="62" viewBox="0 0 83 62" fill="none" xmlns="http://www.w3.org/2000/svg">
<path fill-rule="evenodd" clip-rule="evenodd" d="M2.07489 0.918001C0.622466 0.918001 0.0864538 2.92428 0 3.92741C3.49587 25.868 4.68877 38.2802 6.22466 60.5041C5.94792 60.4698 8.29955 63.2126 10.8932 60.5041C10.8932 52.0779 10.3744 46.0439 10.3744 46.0439C14.2386 42.9248 30.7204 37.4349 43.049 33.3283L43.0494 33.3282L43.061 33.3243C45.9535 32.3608 48.617 31.4736 50.8347 30.7111L51.6128 33.1186C72.3617 24.6923 83.2548 15.0622 82.9955 12.0528C82.7361 9.04339 70.0679 4.70461 50.0566 3.92741C50.316 1.82081 49.2786 -0.195495 47.463 0.0151821C29.4907 2.10054 9.96158 1.25066 3.87696 0.985857L3.87671 0.985846C2.93685 0.944943 2.31781 0.918001 2.07489 0.918001ZM10.3744 38.8213C9.46921 26.913 8.64616 20.3164 6.48402 8.72728C6.48402 8.72728 9.50931 16.6626 10.3744 22.5705C11.2983 28.8795 10.3744 38.8213 10.3744 38.8213ZM21.1272 22.3039L26.2568 21.2544L25.7739 18.0765L20.6443 19.126L19.906 14.2681L25.653 13.0923L25.1681 9.90137L16.1211 11.7523L19.0028 30.7153L22.3028 30.0401L21.1272 22.3039ZM39.7093 18.1275C40.0444 20.3323 39.8538 22.1365 39.1376 23.54C38.4279 24.9421 37.2753 25.8064 35.6799 26.1328C34.091 26.4579 32.7511 26.1113 31.6602 25.0931C30.5682 24.0673 29.8504 22.4684 29.507 20.2963L29.0799 17.4858C28.7368 15.2282 28.9199 13.3752 29.6293 11.9265C30.3375 10.4704 31.4925 9.57843 33.0944 9.2507C34.6703 8.92828 36.0072 9.29879 37.1049 10.3621C38.2016 11.418 38.9273 13.0696 39.2822 15.3169L39.7093 18.1275ZM36.421 15.9605C36.1958 14.4781 35.8467 13.4128 35.3737 12.7647C34.9007 12.1166 34.2816 11.8709 33.5163 12.0274C32.7576 12.1827 32.2498 12.6474 31.9929 13.4215C31.7349 14.1881 31.7076 15.2838 31.9107 16.7087L32.355 19.6322C32.5734 21.0694 32.9195 22.0926 33.3932 22.7018C33.8658 23.3034 34.4879 23.5253 35.2597 23.3673C36.0055 23.2148 36.5097 22.7702 36.7722 22.0338C37.0336 21.2897 37.0612 20.2172 36.855 18.8162L36.421 15.9605ZM50.0063 20.427C50.6307 19.2034 50.7969 17.6306 50.5047 15.7084L50.1324 13.2582C49.823 11.299 49.1903 9.85916 48.2343 8.93865C47.2772 8.01157 46.1118 7.6886 44.7379 7.96968C43.3414 8.25539 42.3344 9.03302 41.717 10.3025C41.0986 11.5654 40.9389 13.1809 41.238 15.149L41.6104 17.5992C41.9098 19.4928 42.5355 20.8867 43.4876 21.781C44.4386 22.6687 45.6067 22.9709 46.9919 22.6874C48.3828 22.4029 49.3876 21.6494 50.0063 20.427ZM46.725 11.0332C47.1373 11.5982 47.4417 12.5269 47.6381 13.8192L48.0164 16.3089C48.1962 17.5302 48.1721 18.4652 47.9442 19.1139C47.7153 19.756 47.2758 20.1435 46.6256 20.2765C45.9528 20.4142 45.4104 20.2208 44.9984 19.6963C44.5854 19.1652 44.2837 18.2732 44.0933 17.0202L43.706 14.4716C43.5288 13.2293 43.5527 12.2741 43.7777 11.6058C44.0015 10.9309 44.4443 10.5257 45.1058 10.3904C45.7729 10.2539 46.3127 10.4682 46.725 11.0332ZM54.6674 23.3175L52.7461 10.6756L55.6271 10.0861C56.8995 9.82582 57.9836 10.0875 58.8789 10.8711C59.7799 11.6537 60.3619 12.8597 60.6249 14.489L60.9362 16.5381C61.1888 18.1993 61.0078 19.5822 60.3941 20.6866C59.7841 21.7843 58.8156 22.4688 57.4888 22.7403L54.6674 23.3175ZM55.2697 12.3527L56.5457 20.7488L57.204 20.6141C57.9375 20.4641 58.4199 20.1356 58.6512 19.6287C58.882 19.1159 58.9215 18.3081 58.7695 17.2052L58.4354 15.0085C58.2559 13.8277 57.9888 13.0348 57.634 12.6299C57.2787 12.2192 56.7574 12.0722 56.0701 12.1889L55.2697 12.3527ZM69.1138 17.8811L65.2224 18.6772L67.8544 10.0772L67.6562 8.77539L61.5664 10.0213L61.847 11.865L65.738 11.0689L63.0681 19.6378L63.2704 20.9697L69.3929 19.7172L69.1138 17.8811Z" fill="#8B8E93"/>
</svg>
